<svg width="22" height="22" viewBox="0 0 22 22" fill="none" xmlns="http://www.w3.org/2000/svg">
<g clip-path="url(#clip0_1_1431)">
<path d="M21.4659 19.7917L16.5239 14.8044C17.7138 13.206 18.3561 11.2603 18.3539 9.26112C18.3539 4.15457 14.2371 0 9.17693 0C4.1168 0 0 4.15457 0 9.26112C0 14.3677 4.1168 18.5222 9.17693 18.5222C11.158 18.5245 13.0859 17.8763 14.6698 16.6755L19.6118 21.6628C19.862 21.8885 20.1882 22.009 20.5236 21.9995C20.8591 21.99 21.1781 21.8513 21.4154 21.6119C21.6527 21.3724 21.7901 21.0504 21.7995 20.7119C21.8089 20.3734 21.6895 20.0442 21.4659 19.7917ZM2.62198 9.26112C2.62198 7.95278 3.00642 6.67382 3.72669 5.58598C4.44695 4.49813 5.4707 3.65026 6.66846 3.14958C7.86622 2.6489 9.1842 2.5179 10.4557 2.77314C11.7273 3.02839 12.8952 3.65841 13.812 4.58355C14.7287 5.50868 15.353 6.68738 15.6059 7.97058C15.8588 9.25378 15.729 10.5839 15.2329 11.7926C14.7368 13.0014 13.8966 14.0345 12.8187 14.7614C11.7407 15.4882 10.4734 15.8762 9.17693 15.8762C7.43909 15.8741 5.77302 15.1765 4.54418 13.9364C3.31534 12.6963 2.62406 11.0149 2.62198 9.26112Z" fill="#96A7AF"/>
</g>
<defs>
<clipPath id="clip0_1_1431">
<rect width="22" height="22" fill="white"/>
</clipPath>
</defs>
</svg>
